<?xml version="1.0" standalone="no"?><!DOCTYPE svg PUBLIC "-//W3C//DTD SVG 1.1//EN" "http://www.w3.org/Graphics/SVG/1.1/DTD/svg11.dtd"><svg t="1653458407052" class="icon" viewBox="0 0 2685 1024" version="1.1" xmlns="http://www.w3.org/2000/svg" p-id="19644" xmlns:xlink="http://www.w3.org/1999/xlink" width="83.90625" height="32"><defs><style type="text/css"></style></defs><path d="M554.93 602.734h-16.914a241.567 241.567 0 0 0-61.719 23.722c-28.28 16.494-49.513 30.65-49.513 30.65s17.694 17.693 30.65 32.988 25.251 26.99 25.251 26.99z" p-id="19645"></path><path d="M2246.562 836.624H689.524l-0.54-750.853c0-59.26 27.291-73.715 73.685-73.715L1463.02 0.06l694.234 11.186c26.99 0 65.557 0.42 81.932 19.314 13.585 15.654 7.347 47.593 7.377 69.936z" fill="#4E5B9E" p-id="19646"></path><path d="M862.805 132.615h100.796v7.077H862.805z m406.721 8.907c-19.613 0-42.195-0.51-67.477-1.86a1506.475 1506.475 0 0 0-170.941 0l-0.51-7.047a1513.823 1513.823 0 0 1 171.931 0c97.497 5.218 154.357-2.28 154.927-2.34l0.93 6.988c-0.39 0.06-32.3 4.259-88.86 4.259z m-406.72 49.423h357.147v7.077H862.805z m178.558 47.743h341.223v7.078h-341.223z m0 63.639h223.814v7.077h-223.814z m316.482-7.078h459.683v7.078h-459.683z m-495.04 68.977h349.17v7.077h-349.17z" fill="#FFFFFF" p-id="19647"></path><path d="M2194.71 878.55H738.438v-3.54l-0.48-750.882c0-54.852 20.993-77.254 71.975-77.254l651.737-11.996 646.19 11.186h0.3c23.271 0 62.048 0 78.663 20.603 10.556 13.106 9.326 35.658 8.247 55.601-0.33 5.818-0.63 11.456-0.63 16.585z m-1449.045-7.078h1441.817v-732.65c0-5.248 0.33-11.006 0.63-16.974 1.02-18.653 2.16-39.796-6.688-50.742-14.545-17.994-51.462-17.994-73.504-17.994l-646.13-11.216-651.677 11.996c-40.216 0-65.078 11.756-65.078 70.176z" fill="#5E6DBE" p-id="19648"></path><path d="M0 972.238h2685.042v7.077H0z" fill="#231815" p-id="19649"></path><path d="M2316.108 975.776H511.565L792.09 866.344l1454.473-29.72 69.546 139.152z" fill="#4E5B9E" p-id="19650"></path><path d="M549.772 606.423s26.601-35.358 50.773-50.683 55.84-38.597 55.84-38.597l207.74 55.241s-26.091-49.933 14.575-75.574 144.1-51.612 144.1-51.612 66.308-17.334 82.202-21.773 126.257-26.75 155.587-26.51 267.089-2.4 307.065 5.607 260.461 94.288 260.461 94.288l56.59 34.908s248.406 148.09 265.2 162.215 163.534 82.232 197.153 92.098 73.355 14.995 93.688 7.078 22.102-2.67 28.28-34.488-200.661-22.972-200.661-22.972h-21.803v-28.73l48.314-6.628s89.31-7.978 100.795-14.995 83.102-14.155 105.204-1.77 39.767 19.434 55.691 38.987 32.689 58.33 24.742 94.588-3.54 67.027-54.822 79.473-13.255 11.576-13.255 11.576 38.987 47.173 42.735 54.79l7.648 29.18-51.253 10.617a159.725 159.725 0 0 1-53.262 0.66 272.097 272.097 0 0 1-59.979-15.685s-4.319-0.54-27.62 3c-6.568 0.989-14.636 2.309-24.532 4.048-44.985 7.977-147.64 19.463-198.922 22.102s-176.94-31.819-176.94-31.819-96.357-36.227-143.95-68.976a149.169 149.169 0 0 1-18.594-14.995 159.725 159.725 0 0 1-11.486-11.996c-1.38-1.59-2.7-3.179-3.959-4.798-2.37-3-4.558-5.998-6.598-8.817a174.93 174.93 0 0 1-23.002-44.985l29.33 65.828h-86.7l-904.611-9.657-47.984 9.657-145.3 65.737s-167.942 52.182-192.624 49.843-173.76 12.956-186.356 4.858 7.527-34.968 18.953-44.564 23.992-23.722 46.964-25.522 71.466-8.996 71.466-8.996l78.483-44.265a76.054 76.054 0 0 0-5.608-21.743c-5.398-14.125 6.208-64.808 6.208-64.808s-3.75-21.203 16.584-55.48 33.888-57.311 33.888-57.311 19.554-43.185 20.393-52.512 33.17-35.118 33.17-35.118z" fill="#FFFFFF" p-id="19651"></path><path d="M448.437 891.895C435.21 884.068 435 847.87 436.74 837.464l0.63-3.929c2.489-15.475 8.337-51.822 17.274-73.745a194.394 194.394 0 0 1 20.003-36.917c3.539-5.458 7.467-11.516 11.996-19.253a125.147 125.147 0 0 0 17.304-41.986c0.78-3 1.62-6.388 2.639-10.167 6.448-23.991 39.706-46.994 41.116-47.983l4.018 5.998c-0.33 0.24-32.508 22.522-38.296 43.965-1.02 3.778-1.86 7.077-2.64 10.076a132.135 132.135 0 0 1-17.993 43.875c-4.649 7.798-8.637 13.945-12.236 19.464a190.615 190.615 0 0 0-19.254 35.597c-8.637 21.173-14.575 58.27-16.824 72.216l-0.63 3.958c-1.89 11.157 0 42.226 8.337 47.204z" p-id="19652"></path><path d="M411.37 782.283h38.896v7.077H411.37z m-1.482 30.715l38.924-18.848 3.07 6.342-38.92 18.849z" fill="#231815" p-id="19653"></path><path d="M463.761 811.313l-16.104-17.424 5.218-4.799 12.176 13.226 23.422-13.885 3.599 6.087-28.31 16.795z m-238.868 189.955h-7.077v-6.928l26.3-40.576c0.18 0 19.194-15.595 37.938-28.46s70.116-11.486 76.893-11.276l87.93-30.35 2.31 6.688-89.19 30.8h-0.66c-0.54 0-55.6-2.16-73.265 9.986-16.974 11.636-34.128 25.401-37.067 27.77l-23.992 37.517z m558.95-124.038h238.987v7.078H783.842z m-212.448 95.008h1354.877v7.077H571.395z" fill="#231815" p-id="19654"></path><path d="M909.949 542.724s31.82-3.478 53.022 5.998 21.802 28.28 59.98 64.838 91.048 96.657 174.72 92.969 173.28-54.222 190.974-71.976 81.303-84.96 107.244-91.978 63.638-14.036 83.701-4.05 77.794 26.482 122.568 26.482 73.085-17.604 83.702-26.481 42.405-41.986 42.405-41.986l-53.412-33.378c-31.039-15.895 0 0-112.251-38.987a282.324 282.324 0 0 0-37.517-10.017l-98.697-19.733c-122.808-23.992-291.56 8.487-388.337 34.548a398.054 398.054 0 0 0-91.409 37.278z" fill="#FFC14D" p-id="19655"></path><path d="M1529.82 669.557a50.503 44.415 10.76 1 0 16.584-87.268 50.503 44.415 10.76 1 0-16.584 87.268z" fill="#FFC14D" p-id="19656"></path><path d="M1561.596 921.135h-206.12a16.524 16.524 0 0 1-16.494-16.494v-33.169H1578.9v32.42a17.274 17.274 0 0 1-17.304 17.243zM1346 878.55v26.09a9.447 9.447 0 0 0 9.417 9.418h206.12a10.167 10.167 0 0 0 10.166-10.167V878.55z" fill="#FFFFFF" p-id="19657"></path><path d="M1438.368 413.769l-5.458-4.499 42.436-51.432 5.458 4.498-42.436 51.433z m12.746 17.184l-5.008-5.009 51.852-51.852 5.038 5.008-51.882 51.853z" p-id="19658"></path><path d="M1926.272 578.142l67.177-4.858" fill="#FFFFFF" p-id="19659"></path><path d="M1926.512 581.681l-0.48-7.047 67.177-4.859 0.48 7.048-67.177 4.858z" p-id="19660"></path><path d="M1951.013 595.836l59.23-7.077" fill="#FFFFFF" p-id="19661"></path><path d="M1950.63 592.268l59.229-7.057 0.837 7.03-59.23 7.053z" p-id="19662"></path><path d="M1828.145 696.002l31.82 11.906" fill="#FFFFFF" p-id="19663"></path><path d="M1826.91 699.337l2.47-6.6 31.823 11.911-2.471 6.598z" p-id="19664"></path><path d="M1825.206 714.866l43.005 23.002" fill="#FFFFFF" p-id="19665"></path><path d="M1823.563 718.063l3.335-6.241 43.005 22.984-3.335 6.24z" p-id="19666"></path><path d="M2043.232 764.379a100.226 100.226 0 0 1 21.802 15.324c11.786 10.587 35.988 22.373 41.266 22.973s26.511 14.155 26.511 14.155" fill="#FFFFFF" p-id="19667"></path><path d="M2130.922 819.77c-9.867-6.268-22.253-13.256-25.012-13.586-6.688-0.75-31.489-13.315-43.245-23.991a98.156 98.156 0 0 0-20.993-14.755l3-6.388a103.135 103.135 0 0 1 22.671 15.894c11.277 10.137 34.848 21.593 39.287 22.103 5.668 0.63 22.882 11.366 28.04 14.665z" p-id="19668"></path><path d="M2421.732 799.767c-32.299 0-92.218-16.345-106.913-22.193-17.034-6.777-150.249-75.514-155.947-78.423l3.239-6.298c1.38 0.72 138.553 71.496 155.287 78.153 19.163 7.618 96.567 27.351 116.6 20.244 24.382-8.637 38.387-16.885 37.667-33.529-0.63-14.245-0.36-22.402-0.15-28.94 0-3 0.18-5.518 0.18-8.307h7.078c0 2.999 0 5.578-0.18 8.517-0.21 6.778-0.48 14.455 0 28.43 1.02 23.182-20.363 32.719-42.376 40.486a45.824 45.824 0 0 1-14.485 1.86z" fill="#231815" p-id="19669"></path><path d="M2253.16 705.419l-1.41-6.928c7.078-1.44 42.856-8.427 52.063-5.998l-1.92 6.808c-5.848-1.56-32.989 2.939-48.733 6.118z m77.223 232a298.848 298.848 0 0 1-30.17-28.85c-13.585-15.234-33.498-34.188-33.708-34.368l4.889-5.128c0.21 0.18 20.303 19.313 34.098 34.788a287.152 287.152 0 0 0 29.36 28.07z" fill="#231815" p-id="19670"></path><path d="M2311.88 909.59l-2.16-6.749c0.18 0 18.564-5.998 32.99-9.956a51.522 51.522 0 0 1 28.61 0l-2.28 6.688a45.315 45.315 0 0 0-24.441 0c-14.275 4.108-32.54 9.926-32.72 10.016z m-509.526-11.547l-112.222-3.419 0.21-7.077 112.222 3.418-0.21 7.078zM351.24 481.485h-65.708l37.608-53.561-45.825 4.048-0.63-7.047 60.97-5.368-38.537 54.85h52.122v7.078z" fill="#231815" p-id="19671"></path><path d="M363.266 609.242l-15.085-11.666-20.843-35.928 6.118-3.539 20.483 35.298 13.585 10.197-4.258 5.638z" p-id="19672"></path><path d="M430.803 380.12h-61.72l20.694-41.386c-9.507 1.29-22.642 2.16-26.991-2.1l5.008-5.007c2.1 1.799 14.995 1.35 27.53-0.96l6.959-1.26-21.833 43.635h50.263z m-117.41-86.61l-30.8-6.568 17.904-23.512h-16.434v-7.048h30.71l-19.794 25.971 19.883 4.229-1.47 6.928z" fill="#231815" p-id="19673"></path><path d="M2370.33 890.995c0-4.138 22.402-38.326 45.974-44.204s57.73 8.247 81.302 0 49.513-22.403 51.883-43.606-16.495-50.682-10.617-65.437-4.708-21.203 17.694-15.595 36.528 58.63 36.528 58.63 17.694 38.987 4.708 65.978-33.379 47.113-50.683 53.471c-14.305 5.278-60.669 5.998-60.669 5.998z" fill="#FFC14D" p-id="19674"></path><path d="M2465.787 906.2s8.997 0.78 3.539 14.995-14.125 20.783-10.706 37.667 16.644 31.1 16.644 31.1l16.584 11.006s72.965 0.78 79.443-6.868-11.636-52.722-21.802-55.99-49.693-32.42-49.693-32.42z" fill="#FFC14D" p-id="19675"></path><path d="M2466.837 906.23c-40.186 0-82.982-4.588-85.71-4.888l-80.223-19.343a278.905 278.905 0 0 1-28.91-8.787l-86.97-32 2.428-6.657 87.12 31.999a251.014 251.014 0 0 0 28.13 8.547l79.804 19.313c0.57 0 99.236 10.677 137.113 0s44.595-25.401 56.5-68.676c11.157-40.456-5.997-75.544-22.432-101.635-12.356-19.824-42.795-31.88-65.018-40.697l-3.418-1.35c-19.674-7.826-41.986-7.497-66.728 0.87a272.637 272.637 0 0 1-41.985 10.857l-1.08-6.988a272.577 272.577 0 0 0 40.756-10.556c26.271-8.997 50.353-9.207 71.616-0.75l3.418 1.35c23.123 9.177 54.792 21.712 68.437 43.515 9.987 16.044 36.618 58.63 23.242 107.243-12.236 44.385-20.663 62.229-61.419 73.625-13.555 3.779-33.768 5.008-54.671 5.008z" fill="#231815" p-id="19676"></path><path d="M2214.953 1023.34a117.71 117.71 0 0 1-13.585-0.69c-3.72-0.45-9.657-1.02-17.394-1.769-63.759-6.298-233.14-23.002-302.897-62.978-87.87-50.593-107.273-85.861-111.112-95.428a247.985 247.985 0 0 1-9.897-31.489l6.898-1.59a244.776 244.776 0 0 0 9.537 30.44c2.609 6.448 19.973 41.206 107.963 91.949 68.347 39.346 242.677 56.5 299.897 62.168 7.798 0.75 13.766 1.35 17.544 1.8 32.45 3.749 102.355-9.927 147.19-25.102 39.587-13.375 43.845-8.787 45.674-6.807a5.218 5.218 0 0 1 0.81 1.11l39.677 10.226c38.207 9.806 120.588-4.409 131.955-10.796-2.76-7.798-24.412-39.437-38.447-56.771a86.19 86.19 0 0 0-26.091-21.623l2.999-6.357a92.338 92.338 0 0 1 28.52 23.541c6.837 8.428 40.276 53.232 40.276 62.32a4.948 4.948 0 0 1-2.19 3.928c-10.496 8.127-98.965 22.822-138.852 12.596l-45.704-11.756 0.69-1.71c-3-0.3-11.996 0.3-37.128 8.817-39.616 13.585-99.146 25.971-136.333 25.971z" fill="#231815" p-id="19677"></path><path d="M573.764 761.56c-9.897-4.499-23.992-15.475-21.713-39.767s8.397-40.666 7.978-55.27-2.85-37.998-8.278-48.164a23.542 23.542 0 0 1-0.75-19.914 80.972 80.972 0 0 1 14.306-18.983c7.977-7.078 70.746-53.472 80.972-57.91l10.167-4.409s33.588-54.371 68.046-76.474 52.153-29.18 66.308-29.18 29.18 0.9 38.027 14.605 10.166 16.795 11.486 25.192 0 69.846 0 69.846 1.77-43.785 14.575-52.182 59.98-14.995 77.343-20.753S995.9 438.03 1024.63 436.2l28.73-1.77s-168.422 57.91-173.28 70.266-13.256 31.4-14.576 42.886-1.32 24.741-1.32 24.741L675.37 744.346s-30.74 22.252-39.706 22.192c-43.845-0.18-43.335 3.449-61.9-4.978z" fill="#FFC14D" p-id="19678"></path><path d="M808.374 436.021s8.457-6.388 11.096 5.098-26.511 35.358-28.28 40.666-2.79 4.859 1.559 7.198 15.625 3.989 18.954 16.644 4.648 18.294-1.65 22.972-9.867 5.518-18.863 4.799-32.27-5.129-34.279-5.129-23.992 0.99-23.992 0.99-20.662 7.378-20.333 9.327a75.994 75.994 0 0 1 17.544-47.594c19.824-24.531 14.995-24.351 30.53-32.989s47.714-21.982 47.714-21.982z" fill="#FFB01F" p-id="19679"></path><path d="M707.218 560.508c0-0.84-3.598-20.842 8.997-50.352 13.316-30.98 30.89-50.983 55.391-62.499a348.091 348.091 0 0 1 42.316-17.274l2.1 6.748a348.45 348.45 0 0 0-41.387 16.884c-22.852 10.886-39.346 29.6-51.882 58.93-11.756 27.41-8.667 46.124-8.637 46.304z" fill="#FFFFFF" p-id="19680"></path><path d="M715.435 535.377l-5.997-3.929c8.517-12.805 29.3-25.131 30.17-25.64l3.568 5.997c0.03 0.21-20.153 12.086-27.74 23.572z" fill="#FFFFFF" p-id="19681"></path><path d="M713.786 544.764l-5.788-4.079a43.455 43.455 0 0 1 23.992-14.995 19.463 19.463 0 0 0 8.217-4.168c3.959-3 7.407-5.248 16.614-3.899l13.976 2.13-1.08 7.017-13.975-2.16c-6.778-1.049-8.307 0.24-11.127 2.46a26.151 26.151 0 0 1-10.706 5.578 37.547 37.547 0 0 0-20.123 12.116z" fill="#FFFFFF" p-id="19682"></path><path d="M263.94 1023.97c-4.499 0-8.157 0-10.827-0.3-27.38-2.28-30.26-3.419-34.578-13.465a9.837 9.837 0 0 1 0.36-7.978c5.998-14.515 36.738-45.284 56.74-53.711a95.127 95.127 0 0 1 35.988-6.838 32.989 32.989 0 0 0 10.947-1.32c3.958-1.979 11.486-2.339 20.243-2.758 8.157-0.42 18.324-0.9 22.042-3 8.247-4.738 110.812-62.498 110.812-62.498 1.08-0.6 105.714-58.57 140.952-88.92S890.096 559.1 892.525 557.15l4.468 5.488c-2.399 1.949-240.367 195.293-275.725 225.882S483.405 876 479.056 878.25s-102.475 57.73-110.722 62.468c-5.188 3-14.995 3.42-25.221 3.93-6.928 0.329-14.785 0.749-17.424 2.038a35.028 35.028 0 0 1-13.826 2.07 89.55 89.55 0 0 0-33.498 6.268c-22.522 9.506-54.402 45.584-53.472 52.092 3 6.687 3.15 7.347 28.82 9.507 27.65 2.219 175.32-9.327 176.79-9.417l89.97-16.465c0.449-0.21 101.155-36.557 139.481-52.842s156.967-78.213 158.166-78.843l3.27 6.268c-1.2 0.63-119.96 62.739-158.647 79.113S523.321 997.16 522.301 997.55l-90.988 16.644c-5.728 0.48-124.128 9.777-167.373 9.777z" fill="#231815" p-id="19683"></path><path d="M511.775 778.504l-0.45-7.048 200.932-12.955 0.48 7.047-200.962 12.956z m176.85 70.596l-177.99-48.314 1.83-6.807 177.989 48.313-1.83 6.808z" fill="#231815" p-id="19684"></path></svg>