<?xml version="1.0" standalone="no"?><!DOCTYPE svg PUBLIC "-//W3C//DTD SVG 1.1//EN" "http://www.w3.org/Graphics/SVG/1.1/DTD/svg11.dtd"><svg t="1653394073454" class="icon" viewBox="0 0 1183 1024" version="1.1" xmlns="http://www.w3.org/2000/svg" p-id="18482" xmlns:xlink="http://www.w3.org/1999/xlink" width="36.96875" height="32"><defs><style type="text/css"></style></defs><path d="M241.664 893.1328c0-1.024-7.5776-7.7824-16.7936-15.1552-57.7536-45.2608-102.4-108.3392-125.5424-177.9712-17.2032-51.4048-19.456-75.3664-19.456-200.2944 0-87.8592-0.4096-100.352-3.072-100.352-6.7584 0-2.4576-5.9392 11.0592-15.1552 29.696-20.0704 90.9312-76.3904 131.8912-121.0368 70.4512-76.5952 114.0736-145.6128 129.4336-204.8l4.7104-18.2272 22.9376-4.5056c42.1888-8.3968 57.9584-9.0112 215.6544-9.0112 156.0576 0 168.7552 0.6144 211.968 8.6016 23.552 4.3008 25.1904 4.9152 26.2144 9.8304 11.264 54.6816 50.3808 123.2896 109.1584 191.488 48.3328 56.1152 127.7952 130.8672 160.5632 150.9376 9.216 5.9392 12.6976 11.8784 6.7584 11.8784-2.4576 0-3.072 16.9984-3.8912 111.2064-0.8192 119.1936-1.2288 123.904-12.6976 168.1408-19.0464 73.5232-67.9936 148.48-128 196.1984-8.3968 6.7584-16.9984 13.5168-19.0464 15.1552-1.8432 1.6384-3.8912 2.8672-4.3008 2.8672s-1.4336-7.9872-2.2528-17.8176c-5.5296-69.4272-33.1776-127.3856-85.8112-179.8144-35.6352-35.6352-74.9568-60.416-126.3616-79.4624-39.7312-14.9504-102.4-28.0576-133.3248-28.0576-20.0704 0-65.7408 7.3728-94.4128 15.36-95.0272 26.0096-171.4176 80.896-214.2208 154.2144-21.7088 37.0688-37.0688 89.7024-37.0688 126.976 0 5.7344-0.8192 10.6496-2.048 10.6496-1.024 0-2.048-0.8192-2.048-1.8432z m120.832-324.1984c40.1408-12.0832 70.2464-55.7056 63.488-92.16-5.12-27.648-23.7568-51.2-50.5856-64.512-14.5408-7.168-17.2032-7.7824-33.1776-7.7824-15.5648 0-19.2512 0.8192-31.5392 6.5536-19.0464 9.0112-34.6112 24.3712-44.032 43.4176-6.9632 14.1312-7.5776 16.7936-7.5776 32.9728s0.6144 18.8416 7.5776 32.9728c19.2512 38.912 59.5968 59.392 95.8464 48.5376z m503.1936-1.6384c37.888-13.1072 65.7408-56.7296 58.368-91.5456-6.7584-32.768-30.1056-58.5728-62.0544-68.4032-16.384-5.12-28.672-4.9152-45.2608 1.024-31.1296 11.0592-52.6336 36.0448-58.9824 68.1984-6.144 31.5392 14.9504 69.4272 47.7184 85.6064 23.552 11.6736 37.6832 12.9024 60.2112 5.12zM487.2192 352.4608c13.312-26.2144 17.408-56.1152 11.4688-81.7152-3.072-12.6976-12.0832-32.5632-18.432-40.3456-1.8432-2.2528-0.6144 1.024 2.8672 7.168 9.8304 18.432 12.4928 30.72 12.4928 58.5728 0 26.0096-3.4816 42.8032-12.4928 60.8256-2.2528 4.096-3.4816 7.5776-2.8672 7.5776 0.4096 0 3.6864-5.3248 6.9632-12.0832z m232.6528 1.4336c-8.192-18.2272-11.264-33.5872-11.264-57.9584 0-23.9616 3.072-40.3456 10.24-54.272 2.2528-4.5056 3.6864-8.192 3.072-8.192-2.2528 0-13.1072 25.6-16.5888 38.912-5.9392 23.3472-0.8192 55.9104 13.312 83.5584 6.144 12.0832 7.168 10.6496 1.2288-2.048z" fill="#ECD7A7" p-id="18483"></path><path d="M347.136 1020.928c-23.7568-3.2768-34.816-6.3488-45.8752-12.6976-32.9728-19.0464-52.0192-54.8864-59.8016-112.4352-5.5296-40.3456 8.8064-99.1232 34.6112-143.5648 51.6096-88.2688 149.504-149.0944 268.4928-166.5024 47.9232-6.9632 84.3776-4.5056 139.264 9.6256 73.728 18.8416 127.3856 47.9232 173.4656 93.7984 50.176 49.9712 77.824 105.0624 84.7872 169.3696 2.4576 22.7328 1.024 38.5024-6.3488 70.2464-11.0592 47.104-40.5504 80.2816-78.6432 88.8832-36.2496 8.192-69.632 6.3488-147.456-8.192-62.464-11.4688-83.5584-14.1312-117.76-14.1312-34.4064 0-56.5248 2.6624-118.784 14.336-38.912 7.168-94.6176 14.7456-104.448 14.1312-1.6384-0.2048-11.264-1.4336-21.504-2.8672z m170.3936-120.832c50.176-27.0336 68.608-35.84 73.9328-35.84 6.7584 0 35.2256 14.336 129.4336 65.1264 7.3728 4.096 12.4928 6.3488 11.6736 5.3248-1.024-1.024-31.9488-18.0224-68.608-37.6832l-66.9696-36.0448-0.6144-78.2336c-0.2048-44.4416 0.4096-78.2336 1.4336-78.2336 4.5056 0 25.8048-18.2272 34.6112-29.696 10.8544-14.1312 20.48-30.9248 18.6368-32.768-3.072-3.072-24.9856-9.0112-40.3456-11.264-18.0224-2.4576-35.2256-1.4336-54.272 3.2768s-22.3232 6.9632-20.8896 12.9024c3.4816 14.5408 32.1536 47.7184 47.7184 55.0912l6.5536 3.2768v153.8048l-60.8256 32.768c-75.5712 40.5504-81.92 44.032-79.872 44.032 0.8192 0 31.5392-16.1792 68.4032-35.84z" fill="#6F6D75" p-id="18484"></path><path d="M652.9024 902.7584c-9.4208-5.5296-10.0352-9.8304-1.4336-9.8304 7.168 0 12.0832 4.096 12.0832 10.0352 0 5.3248-1.2288 5.3248-10.6496-0.2048zM25.1904 405.7088c-9.6256-4.5056-17.8176-16.5888-21.9136-32.3584-2.6624-10.4448-1.4336-46.08 2.8672-83.5584 7.5776-63.6928 29.9008-126.5664 62.0544-173.8752 6.9632-10.24 22.3232-28.4672 34.2016-40.3456 32.1536-32.1536 65.536-53.0432 106.496-66.56 15.36-4.9152 20.48-5.7344 43.008-5.7344s27.8528 0.8192 43.008 5.7344c9.6256 3.072 26.2144 10.4448 36.864 15.9744 10.6496 5.7344 21.504 11.4688 23.9616 12.6976 5.7344 2.8672 5.7344 2.8672-0.2048 26.0096-19.2512 74.1376-84.1728 166.2976-182.6816 259.2768-50.5856 47.7184-79.872 71.0656-97.0752 77.4144-28.8768 10.6496-36.864 11.4688-50.5856 5.3248zM1122.304 405.2992c-6.144-2.2528-13.7216-4.9152-16.5888-5.7344-13.312-4.5056-39.936-25.1904-80.6912-63.0784-102.8096-95.4368-167.5264-182.0672-192.512-257.4336-3.6864-11.264-7.3728-24.7808-8.192-29.9008-1.4336-10.6496-4.3008-8.192 34.816-27.4432 31.1296-15.36 43.6224-18.432 73.728-18.432 21.2992 0 27.0336 0.8192 41.984 5.7344 95.4368 31.3344 164.4544 112.8448 192.3072 226.5088 12.0832 49.5616 18.0224 120.4224 11.6736 141.9264-7.9872 27.648-28.8768 38.0928-56.5248 27.8528z" fill="#3D373D" p-id="18485"></path><path d="M441.9584 939.2128c-1.2288-2.8672-1.6384-6.3488-1.024-7.7824s32.9728-19.6608 71.8848-40.5504l70.8608-37.888v-141.5168l-6.5536-3.2768c-16.1792-7.7824-39.1168-33.9968-48.5376-55.7056-5.7344-13.1072-5.5296-14.1312 2.6624-18.2272 27.8528-13.1072 81.1008-14.7456 113.664-3.2768 17.8176 6.144 18.432 7.3728 10.8544 22.9376-9.0112 18.2272-24.7808 38.0928-38.5024 48.128-6.3488 4.7104-12.4928 8.6016-13.312 8.6016-1.024 0-1.6384 31.1296-1.4336 72.0896l0.6144 72.0896 66.7648 36.0448c68.8128 36.864 73.5232 39.7312 73.5232 44.032 0 3.072-6.7584 9.216-10.24 9.216s-74.9568-38.2976-78.848-42.3936c-1.6384-1.6384-3.072-2.4576-3.072-1.6384 0 0.6144-13.5168-5.7344-30.1056-14.336l-30.3104-15.7696-69.0176 37.0688c-37.888 20.48-70.8608 37.0688-73.1136 37.0688-2.6624 0-5.3248-2.048-6.7584-4.9152zM324.608 577.1264c-26.8288-5.12-50.9952-24.1664-64.1024-50.5856-7.3728-14.9504-7.5776-15.7696-7.5776-39.1168s0.2048-24.1664 7.5776-39.1168c9.4208-19.0464 24.9856-34.4064 44.032-43.4176 13.1072-6.144 15.1552-6.5536 37.6832-6.5536 23.1424 0 23.7568 0.2048 39.3216 7.7824 28.0576 13.9264 46.08 37.6832 50.9952 67.584 7.9872 48.128-26.624 95.8464-75.3664 103.8336-14.1312 2.2528-18.6368 2.2528-32.5632-0.4096z m10.24-102.8096c7.7824-5.9392 12.288-15.5648 10.4448-22.528-3.072-12.0832-18.6368-23.3472-28.672-20.8896-7.5776 1.8432-16.9984 10.8544-19.6608 18.6368-3.072 9.216 1.6384 19.6608 12.0832 26.8288 8.8064 5.9392 15.9744 5.5296 25.8048-2.048zM823.296 577.3312c-15.9744-3.072-37.6832-15.1552-48.5376-27.0336-26.624-29.2864-32.5632-68.8128-15.36-102.8096 7.5776-14.9504 14.336-23.3472 27.2384-32.768 31.744-23.3472 78.2336-23.1424 109.3632 0.6144 21.7088 16.5888 33.792 39.1168 35.4304 67.1744 1.6384 28.4672-7.9872 52.4288-28.672 71.4752-22.3232 20.6848-50.3808 29.0816-79.4624 23.3472z m3.6864-98.9184c7.168-3.6864 13.9264-11.0592 16.384-17.8176 5.12-12.9024-12.6976-32.3584-27.0336-29.696-13.312 2.4576-25.3952 19.2512-21.2992 29.9008 2.4576 6.5536 7.168 11.8784 14.9504 16.5888 7.3728 4.7104 9.8304 4.7104 16.9984 1.024z" fill="#241F21" p-id="18486"></path><path d="M302.8992 482.5088c-26.2144-17.8176-13.9264-58.5728 17.408-58.5728 19.2512 0 31.9488 12.6976 31.9488 31.9488 0 25.1904-28.672 40.5504-49.3568 26.624zM802.816 482.9184c-15.7696-10.8544-20.2752-26.8288-11.8784-42.3936 12.6976-23.9616 48.5376-22.1184 57.9584 2.8672 8.3968 21.7088-6.7584 44.032-29.696 44.032-6.5536 0-11.6736-1.4336-16.384-4.5056z" fill="#FFFFFF" p-id="18487"></path><path d="M470.8352 375.1936l-4.5056-3.8912 7.168-14.1312c21.504-41.5744 21.7088-83.3536 0.6144-118.3744-7.7824-12.6976-7.9872-18.432-0.8192-20.6848 6.5536-2.048 12.9024 3.6864 20.8896 19.0464 14.1312 26.8288 17.8176 62.0544 9.6256 93.3888-6.3488 23.7568-19.6608 48.3328-26.4192 48.3328-1.024 0-3.8912-1.6384-6.5536-3.6864zM720.896 374.784c-5.3248-5.3248-11.6736-18.2272-17.8176-35.84-3.6864-10.4448-5.3248-20.48-6.144-36.864-1.2288-26.4192 1.6384-40.96 12.9024-64.1024 7.5776-15.7696 14.336-22.1184 21.0944-19.8656 6.9632 2.048 6.9632 7.9872 0.2048 18.6368-10.6496 16.9984-14.7456 30.72-15.9744 53.0432-1.024 24.9856 2.2528 39.936 14.1312 64.1024 8.192 16.384 8.3968 16.9984 4.9152 20.8896-4.7104 5.12-8.192 5.12-13.312 0z" fill="#E0BF82" p-id="18488"></path></svg>