<?xml version="1.0" standalone="no"?><!DOCTYPE svg PUBLIC "-//W3C//DTD SVG 1.1//EN" "http://www.w3.org/Graphics/SVG/1.1/DTD/svg11.dtd"><svg t="1651214152393" class="icon" viewBox="0 0 1024 1024" version="1.1" xmlns="http://www.w3.org/2000/svg" p-id="3480" xmlns:xlink="http://www.w3.org/1999/xlink" width="200" height="200"><defs><style type="text/css"></style></defs><path d="M217.11168 1024c-44.8 0-83.2-12.8-121.6-32-19.2-12.8-32-32-32-57.6V89.6C63.51168 64 76.31168 44.8 95.51168 32c76.8-44.8 172.8-44.8 249.6 0l544 364.8c25.6 12.8 44.8 32 57.6 57.6 32 64 6.4 140.8-57.6 172.8l-544 358.4c-38.4 25.6-83.2 38.4-128 38.4zM191.51168 889.6c25.6 6.4 57.6 0 83.2-12.8l544-358.4s6.4 0 6.4-6.4c0 0-6.4-6.4-6.4-12.8L274.71168 140.8C249.11168 128 217.11168 121.6 191.51168 128v761.6z" p-id="3481"></path></svg>