<?xml version="1.0" standalone="no"?><!DOCTYPE svg PUBLIC "-//W3C//DTD SVG 1.1//EN" "http://www.w3.org/Graphics/SVG/1.1/DTD/svg11.dtd"><svg t="1653315635780" class="icon" viewBox="0 0 1024 1024" version="1.1" xmlns="http://www.w3.org/2000/svg" p-id="1372" xmlns:xlink="http://www.w3.org/1999/xlink" width="32" height="32"><defs><style type="text/css"></style></defs><path d="M750.07 301.18h-39c-18.18 0-32.9-14.71-32.9-32.9 0-18.18 14.71-32.9 32.9-32.9h39c18.18 0 32.9 14.71 32.9 32.9 0 18.19-14.71 32.9-32.9 32.9zM498.38 301.18H273.93c-18.18 0-32.9-14.71-32.9-32.9 0-18.18 14.71-32.9 32.9-32.9h224.45c18.18 0 32.9 14.71 32.9 32.9 0 18.19-14.72 32.9-32.9 32.9zM595.86 804.29c-9.06 0-18.12-3.73-24.61-11.12-12.08-13.56-10.8-34.38 2.83-46.39l43.37-38.43h-295c-18.18 0-32.9-14.71-32.9-32.9s14.71-32.9 32.9-32.9H704.2c13.69 0 25.9 8.48 30.78 21.2 4.82 12.79 1.29 27.24-9 36.31L617.65 796c-6.24 5.59-14.01 8.29-21.79 8.29zM704.21 576.25H322.46c-13.69 0-25.9-8.48-30.78-21.2-4.82-12.79-1.29-27.24 8.93-36.31l108.34-96c13.62-12.08 34.38-10.92 46.46 2.76 12.08 13.62 10.8 34.44-2.76 46.46l-43.44 38.49h295c18.18 0 32.9 14.71 32.9 32.9s-14.72 32.9-32.9 32.9z" p-id="1373"></path><path d="M813.88 959.56H210.12c-63.42 0-115.02-51.6-115.02-115.02V178.97c0-63.42 51.6-115.02 115.02-115.02h603.76c63.42 0 115.02 51.6 115.02 115.02v665.57c0 63.42-51.6 115.02-115.02 115.02zM210.12 129.75c-27.12 0-49.22 22.1-49.22 49.22v665.57c0 27.12 22.1 49.22 49.22 49.22h603.76c27.12 0 49.22-22.1 49.22-49.22V178.97c0-27.12-22.1-49.22-49.22-49.22H210.12z" p-id="1374"></path></svg>