<?xml version="1.0" standalone="no"?><!DOCTYPE svg PUBLIC "-//W3C//DTD SVG 1.1//EN" "http://www.w3.org/Graphics/SVG/1.1/DTD/svg11.dtd"><svg t="1653315701600" class="icon" viewBox="0 0 1024 1024" version="1.1" xmlns="http://www.w3.org/2000/svg" p-id="1680" xmlns:xlink="http://www.w3.org/1999/xlink" width="32" height="32"><defs><style type="text/css"></style></defs><path d="M790.79 959.56H182.75c-64.06 0-116.42-52.1-116.68-116.19l-2.05-526.44c-0.13-31.23 11.93-60.64 33.97-82.74 22.07-22.17 51.44-34.36 82.71-34.36h181.03c18.45 0 33.38 14.93 33.38 33.38s-14.93 33.38-33.38 33.38H180.69c-13.37 0-25.95 5.22-35.37 14.67-9.45 9.52-14.61 22.04-14.54 35.4l2.05 526.44c0.13 27.38 22.49 49.68 49.91 49.68h608.04c27.52 0 49.88-22.43 49.88-49.94V636.29c0-18.45 14.93-33.38 33.38-33.38 18.45 0 33.38 14.93 33.38 33.38v206.56c0.01 64.35-52.31 116.71-116.63 116.71zM761.58 461.09c-8.54 0-17.08-3.26-23.6-9.78-13.04-13.04-13.04-34.17 0-47.21L879.6 262.55 737.98 120.93c-13.04-13.04-13.04-34.17 0-47.21s34.17-13.04 47.21 0l165.22 165.22a33.363 33.363 0 0 1 0 47.2L785.18 451.31c-6.52 6.52-15.06 9.78-23.6 9.78z" p-id="1681"></path><path d="M430.03 669.67c-18.45 0-33.64-14.93-33.64-33.38 0-1.56 0.1-3.06 0.29-4.56 3.36-222.34 185.76-402.56 408.68-402.56H926.8c18.45 0 33.38 14.93 33.38 33.38 0 18.45-14.93 33.38-33.38 33.38H805.36c-187.75 0-341.14 152.77-341.95 340.48-0.06 18.39-14.99 33.26-33.38 33.26z" p-id="1682"></path></svg>