<?xml version="1.0" standalone="no"?><!DOCTYPE svg PUBLIC "-//W3C//DTD SVG 1.1//EN" "http://www.w3.org/Graphics/SVG/1.1/DTD/svg11.dtd"><svg t="1653315213233" class="icon" viewBox="0 0 1024 1024" version="1.1" xmlns="http://www.w3.org/2000/svg" p-id="2881" xmlns:xlink="http://www.w3.org/1999/xlink" width="32" height="32"><defs><style type="text/css"></style></defs><path d="M682.24 673.28m-256 0a256 256 0 1 0 512 0 256 256 0 1 0-512 0Z" fill="#41b883" p-id="2882" data-spm-anchor-id="a313x.7781069.0.i0" class="selected"></path><path d="M686.08 879.36H264.96c-112.64 0-204.8-92.16-204.8-204.8V428.8c0-65.28 30.72-126.72 81.92-165.12L345.6 111.36c78.08-57.6 183.04-57.6 261.12 0l202.24 152.32c52.48 39.68 81.92 99.84 81.92 165.12v244.48c0 113.92-92.16 206.08-204.8 206.08zM376.32 153.6L172.8 305.92c-38.4 28.16-61.44 74.24-61.44 124.16v244.48c0 84.48 69.12 153.6 153.6 153.6h421.12c84.48 0 153.6-69.12 153.6-153.6V428.8c0-48.64-23.04-93.44-61.44-124.16L576 152.32c-60.16-43.52-140.8-43.52-199.68 1.28z" p-id="2883"></path><path d="M474.88 672c-49.92 0-96-28.16-122.88-75.52-6.4-11.52-2.56-26.88 8.96-33.28 11.52-6.4 26.88-2.56 33.28 8.96 17.92 32 49.92 51.2 81.92 51.2 33.28 0 62.72-20.48 80.64-52.48 6.4-11.52 21.76-16.64 33.28-10.24 11.52 6.4 16.64 21.76 10.24 33.28-25.6 47.36-71.68 76.8-121.6 78.08h-3.84z" p-id="2884"></path></svg>