<?xml version="1.0" standalone="no"?><!DOCTYPE svg PUBLIC "-//W3C//DTD SVG 1.1//EN" "http://www.w3.org/Graphics/SVG/1.1/DTD/svg11.dtd"><svg t="1653315774891" class="icon" viewBox="0 0 1024 1024" version="1.1" xmlns="http://www.w3.org/2000/svg" p-id="2157" xmlns:xlink="http://www.w3.org/1999/xlink" width="32" height="32"><defs><style type="text/css"></style></defs><path d="M266.63 910.01h-84.09c-65.39 0-118.53-53.17-118.53-118.5v-609.1c0-65.32 53.14-118.46 118.53-118.46h602.91c65.32 0 118.46 53.14 118.46 118.46v70.75c0 18.64-15.08 33.71-33.71 33.71s-33.71-15.08-33.71-33.71v-70.75c0-28.15-22.92-51.03-51.03-51.03H182.54c-28.18 0-51.1 22.88-51.1 51.03v609.1c0 28.15 22.92 51.07 51.1 51.07h84.09c18.64 0 33.71 15.08 33.71 33.71s-15.08 33.72-33.71 33.72z" p-id="2158"></path><path d="M843.11 959.56H479.95c-64.53 0-117.08-52.51-117.08-117.05V698.4c0-64.53 52.55-117.05 117.08-117.05h363.16c64.53 0 117.08 52.51 117.08 117.05v144.11c0 64.53-52.55 117.05-117.08 117.05zM479.95 648.78c-27.39 0-49.65 22.26-49.65 49.62v144.11c0 27.36 22.26 49.62 49.65 49.62h363.16c27.39 0 49.65-22.26 49.65-49.62V698.4c0-27.36-22.26-49.62-49.65-49.62H479.95z" p-id="2159"></path><path d="M789.51 621c-18.64 0-33.71-15.08-33.71-33.71v-72.63c0-51.99-42.28-94.26-94.23-94.26-52.02 0-94.3 42.28-94.3 94.26v72.63c0 18.64-15.08 33.71-33.71 33.71s-33.71-15.08-33.71-33.71v-72.63c0-89.16 72.57-161.69 161.73-161.69s161.66 72.53 161.66 161.69v72.63c-0.02 18.63-15.1 33.71-33.73 33.71zM711.51 288.52H256.42c-18.64 0-33.71-15.08-33.71-33.71s15.08-33.71 33.71-33.71H711.5c18.64 0 33.71 15.08 33.71 33.71s-15.07 33.71-33.7 33.71z" p-id="2160"></path></svg>