<?xml version="1.0" standalone="no"?><!DOCTYPE svg PUBLIC "-//W3C//DTD SVG 1.1//EN" "http://www.w3.org/Graphics/SVG/1.1/DTD/svg11.dtd"><svg t="1653370554502" class="icon" viewBox="0 0 1024 1024" version="1.1" xmlns="http://www.w3.org/2000/svg" p-id="19916" xmlns:xlink="http://www.w3.org/1999/xlink" width="32" height="32"><defs><style type="text/css"></style></defs><path d="M909.2 182.7S823.5 168.3 759 211c-35 23.2-85.6 70.6-90.4 116.8-8.2 78.6 61.5 107.3 113.1 94.1 51.6-13.3 88-80.6 101.1-112.7 29.9-73.1 26.4-126.5 26.4-126.5z" fill="#E4EADC" p-id="19917"></path><path d="M744.9 421.5c-28.1 0-60-12.6-85.9-35-34.7-29.9-52.2-70.8-47.9-112.1 2.6-24.9 15.6-51.1 38.6-77.9 16.7-19.5 38.8-38.9 60.6-53.4 69.6-46.1 191-34.2 196.1-33.6l15.8 1.6 1.8 15.8c0.5 4.4 12.1 107.8-26.6 182.3-18.9 36.3-72.3 94.4-132 109.8-6.5 1.7-13.4 2.5-20.5 2.5z m120.2-274c-37.9 0-96.2 4.5-132.9 28.8-18.9 12.5-38 29.3-52.4 46.1-17.4 20.2-27.5 39.7-29.2 56.1-2.9 28.2 9.6 56.6 34.3 78 22.3 19.2 51.3 29.1 70.7 24.1 45.3-11.6 91-59.5 106.7-89.7 24.8-47.7 25.1-113 23.6-143-5.9-0.3-12.9-0.4-20.8-0.4z" fill="#424649" p-id="19918"></path><path d="M685.8 52s-40.6 39.5-59.1 97.6c-10.1 31.5-18.6 85.6-1.1 116.5 29.7 52.6 67.8 19.6 91.8-13.9s18.9-68.8 14.2-98.5C722 92.6 685.8 52 685.8 52z" fill="#E4EADC" p-id="19919"></path><path d="M646.4 322c-2 0-4-0.1-6-0.2-34.9-1.9-64.4-19.6-80.8-48.6-20.2-35.8-12.9-93.6-0.5-132.3C579.5 77.2 656 24.3 659.3 22.1l14.3-9.8 11.6 12.9c2.2 2.5 55.1 61.7 65.5 127.8 5.1 32.2-0.5 95.3-28.7 134.8-15.2 21.2-44.4 34.2-75.6 34.2z m20.7-256.2c-21 16.9-58.7 51.1-70.3 87.2-10.7 33.5-15.1 78.8-2.7 100.7 13.1 23.3 36 27.8 48.4 28.5 19.6 1.1 39.1-6.2 47.2-17.6 20.3-28.3 25.8-80.4 21.8-105.5-5.9-37.5-29.8-74-44.4-93.3z" fill="#424649" p-id="19920"></path><path d="M996 365s-67.5-58.8-128.3-62.2c-33-1.8-87.5 3.5-113.1 28.2-43.4 42-18.4 113.2 20.1 128 38.5 14.8 95.1 6.3 122.6-5.7C954.1 428.6 996 365 996 365z" fill="#E4EADC" p-id="19921"></path><path d="M822.9 487.3c-19.3 0-38.8-2.6-55.9-9.2-25.8-10-46.8-37.6-53.5-70.4-7-34.3 2.8-67.2 26.7-90.4 29.5-28.5 87.4-36 127.9-33.8 66.9 3.7 137.3 64.5 140.3 67.1l13.1 11.4-9.5 14.5c-1.8 2.8-45.9 68.8-107.3 95.6-18.6 8.1-49.9 15.2-81.8 15.2z m31.6-164.5c-32.9 0-70.5 7.4-86.6 23-19.2 18.6-17.9 41.8-15.4 54 3.9 19.3 15.8 36.3 28.9 41.3 32.5 12.5 84.2 4.8 107.6-5.4 34.9-15.2 64.2-47.6 79.2-66.5-21.7-16.1-64.3-44-102.1-46.1-3.8-0.2-7.7-0.3-11.6-0.3z" fill="#424649" p-id="19922"></path><path d="M164.7 868.2l-52-50.8c-93.6-93.6-93.6-246.7 0-340.2l196.8-196.8c93.6-93.6 246.7-93.6 340.2 0l52 50.8c93.6 93.6 93.6 246.7 0 340.2L504.9 868.2c-93.5 93.6-246.6 93.6-340.2 0z" fill="#FFFFFF" p-id="19923"></path><path d="M212.1 921.3l-52-50.8c-93.6-93.6-93.6-246.7 0-340.2l196.8-196.8c93.6-93.6 246.7-93.6 340.2 0l52 50.8c93.6 93.6 93.6 246.7 0 340.2L552.3 921.3c-93.5 93.6-246.6 93.6-340.2 0z" fill="#FFB808" p-id="19924" data-spm-anchor-id="a313x.7781069.0.i4" class="selected"></path><path d="M379.2 1019.4c-60.4 0-117.1-23.4-159.5-65.8L68.9 802.8C26.5 760.4 3.1 703.7 3.1 643.3c0-60.4 23.4-117.1 65.8-159.5l246-246C357.4 195.3 414 172 474.4 172s117.1 23.4 159.5 65.8l150.8 150.8c42.4 42.4 65.8 99.1 65.8 159.5 0 60.4-23.4 117.1-65.8 159.5l-246 246c-42.4 42.4-99.1 65.8-159.5 65.8z m95.2-807.8c-49.8 0-96.5 19.3-131.5 54.2l-246 246c-35 35-54.2 81.6-54.2 131.5 0 49.8 19.3 96.5 54.2 131.5l150.8 150.8c35 35 81.6 54.2 131.5 54.2s96.5-19.3 131.5-54.2l246-246c35-35 54.2-81.6 54.2-131.5 0-49.8-19.3-96.5-54.2-131.5L605.9 265.8c-34.9-34.9-81.6-54.2-131.5-54.2z" fill="#424649" p-id="19925"></path><path d="M540.8 645.2l2.7-84.1-82.6 2.4 0.4-83.7-82.6 0.5-2-104.4c-0.2-10.9 8.5-20 19.4-20.2 10.9-0.2 20 8.5 20.2 19.4l1.2 65.2 83.6-0.6-0.4 82.8 83.8-2.4-2.7 84.9 66.5-0.6c11-0.1 19.9 8.7 20 19.6 0.1 10.9-8.7 19.9-19.6 20l-107.9 1.2z" fill="#424649" p-id="19926"></path><path d="M382.4 803.6l2.7-84.1-82.6 2.4 0.4-83.7-82.6 0.5-2-104.4c-0.2-10.9 8.5-20 19.4-20.2 10.9-0.2 20 8.5 20.2 19.4l1.2 65.2 83.6-0.6-0.4 82.8 83.8-2.4-2.7 84.9 66.5-0.6h0.2c10.9 0 19.7 8.8 19.8 19.6 0.1 10.9-8.7 19.9-19.6 20l-107.9 1.2z" fill="#424649" p-id="19927"></path></svg>