<?xml version="1.0" standalone="no"?><!DOCTYPE svg PUBLIC "-//W3C//DTD SVG 1.1//EN" "http://www.w3.org/Graphics/SVG/1.1/DTD/svg11.dtd"><svg t="1652339753321" class="icon" viewBox="0 0 1024 1024" version="1.1" xmlns="http://www.w3.org/2000/svg" p-id="4927" xmlns:xlink="http://www.w3.org/1999/xlink" width="32" height="32"><defs><style type="text/css"></style></defs><path d="M222.570667 224.213333l42.816 74.176A234.709333 234.709333 0 0 0 128 512c0 129.6 105.066667 234.666667 234.666667 234.666667h192v-57.301334a22.4 22.4 0 0 1 37.141333-16.853333l114.261333 99.968a22.4 22.4 0 0 1 0 33.706667l-114.261333 99.968a22.4 22.4 0 0 1-37.141333-16.853334V832h-192C185.941333 832 42.666667 688.725333 42.666667 512c0-126.485333 73.386667-235.84 179.904-287.786667zM446.933333 112.298667c11.541333 0 21.056 8.746667 22.272 19.968l0.128 2.432V192h192c176.725333 0 320 143.274667 320 320 0 125.568-72.32 234.24-177.578666 286.634667l-42.794667-74.112A234.688 234.688 0 0 0 896 512c0-129.6-105.066667-234.666667-234.666667-234.666667h-192v57.301334a22.4 22.4 0 0 1-35.093333 18.474666l-2.048-1.621333-114.261333-99.968a22.4 22.4 0 0 1-1.856-31.872l1.856-1.834667 114.261333-99.968a22.4 22.4 0 0 1 14.741333-5.546666z" p-id="4928"></path></svg>