<?xml version="1.0" standalone="no"?><!DOCTYPE svg PUBLIC "-//W3C//DTD SVG 1.1//EN" "http://www.w3.org/Graphics/SVG/1.1/DTD/svg11.dtd"><svg t="1653315523337" class="icon" viewBox="0 0 1024 1024" version="1.1" xmlns="http://www.w3.org/2000/svg" p-id="1217" xmlns:xlink="http://www.w3.org/1999/xlink" width="32" height="32"><defs><style type="text/css"></style></defs><path d="M845.27 960.12H178.9c-63.35 0-114.88-51.57-114.88-114.92V178.8c0-63.35 51.53-114.85 114.88-114.85h666.37c63.35 0 114.92 51.5 114.92 114.85v666.4c0 63.35-51.57 114.92-114.92 114.92zM178.9 132.88c-25.35 0-45.95 20.6-45.95 45.91V845.2c0 25.38 20.6 45.98 45.95 45.98h666.37c25.38 0 45.98-20.6 45.98-45.98V178.8c0-25.31-20.6-45.91-45.98-45.91H178.9z" p-id="1218"></path><path d="M236.35 684.37c-9.06 0-18.13-3.55-24.92-10.66-13.02-13.62-12.28-35.34 1.04-48.66l202.41-202.41c15.62-15.62 40.95-15.62 56.57 0l102.52 102.52c3.91 3.91 10.24 3.91 14.14 0l174.92-174.92c13.33-13.33 35.05-14.01 48.66-0.96 13.99 13.42 14.16 35.62 0.53 49.26l-202.9 202.9c-15.62 15.62-40.95 15.62-56.57 0L450.23 498.91c-3.91-3.91-10.24-3.91-14.14 0L260.72 674.28c-6.73 6.73-15.55 10.09-24.37 10.09z" p-id="1219"></path></svg>