<?xml version="1.0" standalone="no"?><!DOCTYPE svg PUBLIC "-//W3C//DTD SVG 1.1//EN" "http://www.w3.org/Graphics/SVG/1.1/DTD/svg11.dtd"><svg t="1652340044272" class="icon" viewBox="0 0 1024 1024" version="1.1" xmlns="http://www.w3.org/2000/svg" p-id="7530" xmlns:xlink="http://www.w3.org/1999/xlink" width="32" height="32"><defs><style type="text/css"></style></defs><path d="M512 938.666667C276.352 938.666667 85.333333 747.648 85.333333 512S276.352 85.333333 512 85.333333s426.666667 191.018667 426.666667 426.666667-191.018667 426.666667-426.666667 426.666667z m0-85.333334a341.333333 341.333333 0 1 0 0-682.666666 341.333333 341.333333 0 0 0 0 682.666666z" fill="#595959" p-id="7531"></path><path d="M469.333333 298.666667m42.666667 0l0 0q42.666667 0 42.666667 42.666666l0 213.333334q0 42.666667-42.666667 42.666666l0 0q-42.666667 0-42.666667-42.666666l0-213.333334q0-42.666667 42.666667-42.666666Z" fill="#595959" p-id="7532"></path><path d="M768 512m0 42.666667l0 0q0 42.666667-42.666667 42.666666l-213.333333 0q-42.666667 0-42.666667-42.666666l0 0q0-42.666667 42.666667-42.666667l213.333333 0q42.666667 0 42.666667 42.666667Z" fill="#595959" p-id="7533"></path></svg>