<?xml version="1.0" standalone="no"?><!DOCTYPE svg PUBLIC "-//W3C//DTD SVG 1.1//EN" "http://www.w3.org/Graphics/SVG/1.1/DTD/svg11.dtd"><svg t="1653315752451" class="icon" viewBox="0 0 1024 1024" version="1.1" xmlns="http://www.w3.org/2000/svg" p-id="1998" xmlns:xlink="http://www.w3.org/1999/xlink" width="32" height="32"><defs><style type="text/css"></style></defs><path d="M647.77 263.24c-18.48 0-33.44-14.96-33.44-33.44V97.39c0-18.48 14.96-33.44 33.44-33.44 18.48 0 33.44 14.96 33.44 33.44v132.42c0 18.48-14.96 33.43-33.44 33.43zM273.96 263.24c-18.48 0-33.44-14.96-33.44-33.44V97.39c0-18.48 14.96-33.44 33.44-33.44S307.4 78.9 307.4 97.39v132.42c0 18.48-14.96 33.43-33.44 33.43zM821.59 408.19H97.45c-18.48 0-33.44-14.96-33.44-33.44s14.96-33.44 33.44-33.44h724.14c18.48 0 33.44 14.96 33.44 33.44s-14.95 33.44-33.44 33.44zM412.2 578.88H273.96c-18.48 0-33.44-14.96-33.44-33.44S255.47 512 273.96 512H412.2c18.48 0 33.44 14.96 33.44 33.44s-14.95 33.44-33.44 33.44zM778.59 813.1c-7.9 0-15.81-2.78-22.17-8.39l-54.21-47.97c-13.81-12.25-15.12-33.37-2.87-47.22 12.34-13.78 33.44-15.02 47.22-2.87l54.21 47.97c13.81 12.25 15.12 33.37 2.87 47.22a33.468 33.468 0 0 1-25.05 11.26z" p-id="1999"></path><path d="M724.38 765.13c-18.48 0-33.44-14.96-33.44-33.44v-99.73c0-18.48 14.96-33.44 33.44-33.44s33.44 14.96 33.44 33.44v99.73c0 18.48-14.96 33.44-33.44 33.44z" p-id="2000"></path><path d="M724.38 957.9c-130.04 0-235.81-105.8-235.81-235.84s105.77-235.81 235.81-235.81 235.81 105.77 235.81 235.81S854.41 957.9 724.38 957.9z m0-404.77c-93.13 0-168.93 75.79-168.93 168.93 0 93.17 75.79 168.96 168.93 168.96s168.93-75.79 168.93-168.96c0-93.14-75.8-168.93-168.93-168.93z" p-id="2001"></path><path d="M389.07 907.77H181.54c-64.79 0-117.53-52.71-117.53-117.5v-542.6c0-64.79 52.74-117.53 117.53-117.53H737.5c64.79 0 117.53 52.74 117.53 117.53v167.05c0 18.48-14.96 33.44-33.44 33.44s-33.44-14.96-33.44-33.44V247.67c0-27.92-22.73-50.65-50.65-50.65H181.54c-27.92 0-50.65 22.73-50.65 50.65v542.61c0 27.92 22.73 50.62 50.65 50.62h207.53c18.48 0 33.44 14.96 33.44 33.44s-14.96 33.43-33.44 33.43z" p-id="2002"></path></svg>