<?xml version="1.0" standalone="no"?><!DOCTYPE svg PUBLIC "-//W3C//DTD SVG 1.1//EN" "http://www.w3.org/Graphics/SVG/1.1/DTD/svg11.dtd"><svg t="1653315660109" class="icon" viewBox="0 0 1024 1024" version="1.1" xmlns="http://www.w3.org/2000/svg" p-id="1525" xmlns:xlink="http://www.w3.org/1999/xlink" width="32" height="32"><defs><style type="text/css"></style></defs><path d="M305.29 891.93H186.2c-67.39 0-122.19-51.57-122.19-114.92V179.54c0-63.35 54.8-114.85 122.19-114.85h582.83c67.39 0 122.22 51.5 122.22 114.85v126.43c0 19.05-15.42 34.47-34.47 34.47s-34.47-15.42-34.47-34.47V179.54c0-25.31-23.9-45.91-53.28-45.91H186.2c-29.35 0-53.25 20.6-53.25 45.91v597.47c0 25.38 23.9 45.98 53.25 45.98h119.09c19.05 0 34.47 15.42 34.47 34.47 0 19.06-15.42 34.47-34.47 34.47z" p-id="1526"></path><path d="M822.31 960.87H546.57C470.53 960.87 408.7 899 408.7 823s61.83-137.87 137.87-137.87h275.75c76.04 0 137.87 61.87 137.87 137.87s-61.84 137.87-137.88 137.87zM546.57 754.06c-38 0-68.94 30.9-68.94 68.94s30.93 68.94 68.94 68.94h275.75c38 0 68.94-30.9 68.94-68.94s-30.93-68.94-68.94-68.94H546.57zM684.44 616.19c-76.04 0-137.87-61.87-137.87-137.87s61.83-137.87 137.87-137.87 137.87 61.87 137.87 137.87-61.83 137.87-137.87 137.87z m0-206.81c-38 0-68.94 30.9-68.94 68.94s30.93 68.94 68.94 68.94c38 0 68.94-30.9 68.94-68.94s-30.94-68.94-68.94-68.94zM512.1 340.44H305.29c-19.05 0-34.47-15.42-34.47-34.47s15.42-34.47 34.47-34.47H512.1c19.05 0 34.47 15.42 34.47 34.47s-15.42 34.47-34.47 34.47z" p-id="1527"></path></svg>