<?xml version="1.0" standalone="no"?><!DOCTYPE svg PUBLIC "-//W3C//DTD SVG 1.1//EN" "http://www.w3.org/Graphics/SVG/1.1/DTD/svg11.dtd"><svg t="1653315723327" class="icon" viewBox="0 0 1024 1024" version="1.1" xmlns="http://www.w3.org/2000/svg" p-id="1843" xmlns:xlink="http://www.w3.org/1999/xlink" width="32" height="32"><defs><style type="text/css"></style></defs><path d="M923.43 959.65H100.57c-18.12 0-32.79-14.66-32.79-32.79V480.22c0-18.12 14.66-32.79 32.79-32.79h822.85c18.12 0 32.79 14.66 32.79 32.79v446.64c0 18.13-14.66 32.79-32.78 32.79z m-790.07-65.57h757.28V513.01H133.36v381.07z" p-id="1844"></path><path d="M878.86 502.22c-12.61 0-24.59-7.3-30.03-19.56L739 233.11 212 465.17c-16.39 7.36-35.86-0.19-43.22-16.78-7.3-16.59 0.26-35.92 16.84-43.22L742.6 159.88c7.94-3.52 17.1-3.75 25.04-0.54a32.877 32.877 0 0 1 18.19 17.32l123.08 279.55c7.3 16.59-0.26 35.92-16.84 43.22a32.803 32.803 0 0 1-13.21 2.79z" p-id="1845"></path><path d="M135.54 513.01c-7.49 0-15.05-2.56-21.2-7.78-13.83-11.72-15.5-32.4-3.84-46.2L435.61 75.62a33.025 33.025 0 0 1 22.35-11.49c8.39-0.64 17.23 2.05 23.89 7.68L650.9 215.18c13.83 11.72 15.5 32.4 3.78 46.2-11.72 13.9-32.34 15.5-46.17 3.81L464.42 143.01l-303.85 358.4c-6.53 7.66-15.75 11.6-25.03 11.6z" p-id="1846"></path><path d="M522.02 700.4m-73.44 0a73.44 73.44 0 1 0 146.88 0 73.44 73.44 0 1 0-146.88 0Z" p-id="1847"></path></svg>